<svg width="82" height="15" viewBox="0 0 82 15" fill="none" xmlns="http://www.w3.org/2000/svg">
<path d="M2.43 13H0.45V0.399999H5.688V2.2H2.43V13ZM11.2108 0.399999C12.2068 0.399999 12.9448 0.663999 13.4248 1.192C13.9168 1.72 14.1628 2.494 14.1628 3.514V5.152C14.1628 6.172 13.9168 6.946 13.4248 7.474C12.9448 8.002 12.2068 8.266 11.2108 8.266H10.2748V13H8.29477V0.399999H11.2108ZM10.2748 2.2V6.466H11.2108C11.5228 6.466 11.7628 6.382 11.9308 6.214C12.0988 6.046 12.1828 5.734 12.1828 5.278V3.388C12.1828 2.932 12.0988 2.62 11.9308 2.452C11.7628 2.284 11.5228 2.2 11.2108 2.2H10.2748ZM22.309 13H20.311L19.969 10.714H17.539L17.197 13H15.379L17.395 0.399999H20.293L22.309 13ZM17.791 9.004H19.699L18.745 2.632L17.791 9.004ZM27.5486 4.108C27.5486 4.696 27.6746 5.11 27.9266 5.35C28.1906 5.59 28.5506 5.71 29.0066 5.71V0.399999H30.9866V5.71C31.4426 5.71 31.7966 5.59 32.0486 5.35C32.3126 5.11 32.4446 4.696 32.4446 4.108V2.218C32.4326 1.678 32.6066 1.24 32.9666 0.903999C33.3386 0.555999 33.8306 0.387999 34.4426 0.399999H35.2886V2.2H35.1626C35.0066 2.2 34.8686 2.2 34.7486 2.2C34.6406 2.2 34.5446 2.23 34.4606 2.29C34.3886 2.338 34.3346 2.428 34.2986 2.56C34.2626 2.68 34.2446 2.866 34.2446 3.118V3.928C34.2446 5.224 33.8126 6.076 32.9486 6.484C33.4526 6.688 33.7946 7.024 33.9746 7.492C34.1666 7.948 34.2626 8.506 34.2626 9.166V10.282C34.2626 10.534 34.2806 10.726 34.3166 10.858C34.3526 10.978 34.4066 11.068 34.4786 11.128C34.5626 11.176 34.6586 11.2 34.7666 11.2C34.8866 11.2 35.0246 11.2 35.1806 11.2H35.2886V13H34.4606C33.8486 13.012 33.3626 12.85 33.0026 12.514C32.6426 12.166 32.4626 11.722 32.4626 11.182V9.112C32.4626 8.524 32.3306 8.11 32.0666 7.87C31.8026 7.63 31.4426 7.51 30.9866 7.51V13H29.0066V7.51C28.5506 7.51 28.1906 7.63 27.9266 7.87C27.6626 8.11 27.5306 8.524 27.5306 9.112V11.182C27.5306 11.722 27.3506 12.166 26.9906 12.514C26.6306 12.85 26.1446 13.012 25.5326 13H24.7046V11.2H24.8126C24.9686 11.2 25.1006 11.2 25.2086 11.2C25.3286 11.2 25.4246 11.176 25.4966 11.128C25.5806 11.068 25.6406 10.978 25.6766 10.858C25.7126 10.726 25.7306 10.534 25.7306 10.282V9.166C25.7306 8.506 25.8206 7.948 26.0006 7.492C26.1926 7.024 26.5406 6.688 27.0446 6.484C26.1806 6.076 25.7486 5.224 25.7486 3.928V3.118C25.7486 2.866 25.7306 2.68 25.6946 2.56C25.6586 2.428 25.5986 2.338 25.5146 2.29C25.4426 2.23 25.3466 2.2 25.2266 2.2C25.1186 2.2 24.9866 2.2 24.8306 2.2H24.7046V0.399999H25.5506C26.1626 0.387999 26.6486 0.555999 27.0086 0.903999C27.3806 1.24 27.5606 1.678 27.5486 2.218V4.108ZM39.7299 13C39.6339 13 39.5619 13.018 39.5139 13.054C39.4659 13.102 39.4299 13.18 39.4059 13.288C39.3939 13.396 39.3819 13.54 39.3699 13.72C39.3699 13.912 39.3699 14.152 39.3699 14.44H37.7139V11.2H38.1279C38.7159 10.996 39.1419 10.564 39.4059 9.904C39.6699 9.244 39.8019 8.314 39.8019 7.114V0.399999H45.3099V11.2H46.1379V14.44H44.4819C44.4819 14.152 44.4759 13.912 44.4639 13.72C44.4639 13.54 44.4519 13.396 44.4279 13.288C44.4159 13.18 44.3799 13.102 44.3199 13.054C44.2719 13.018 44.2059 13 44.1219 13H39.7299ZM41.6559 7.15C41.6559 7.606 41.6199 8.056 41.5479 8.5C41.4879 8.944 41.3979 9.352 41.2779 9.724C41.1579 10.096 41.0199 10.414 40.8639 10.678C40.7199 10.942 40.5699 11.116 40.4139 11.2H43.3299V2.2H41.6559V7.15ZM55.23 13H53.232L52.89 10.714H50.46L50.118 13H48.3L50.316 0.399999H53.214L55.23 13ZM50.712 9.004H52.62L51.666 2.632L50.712 9.004ZM59.6236 13H57.6436V0.399999H59.6236V5.8H61.8736V0.399999H63.8896V13H61.8736V7.6H59.6236V13ZM67.9655 13H66.5255V0.399999H68.2895V7.942L71.3675 0.399999H72.8075V13H71.0255V5.854L67.9655 13ZM77.4225 13H75.4425V0.399999H77.4225V5.8H79.6725V0.399999H81.6885V13H79.6725V7.6H77.4225V13Z" fill="white"/>
</svg>